<svg xmlns="http://www.w3.org/2000/svg" width="50" height="50" viewBox="0 0 45 45">
    <defs>
        <style>
            .cls-1{fill:#FF0000}
        </style>
    </defs>
    <path id="ir_ao_inicio_da_pagina" d="M1673.439 4103.706a22.5 22.5 0 1 0 22.5 22.5 22.5 22.5 0 0 0-22.5-22.5zm14.288 29.778l-1.444 1.444a2.391 2.391 0 0 1-1.752.732 2.287 2.287 0 0 1-1.733-.732l-9.359-9.338-9.358 9.338a2.417 2.417 0 0 1-3.467 0l-1.443-1.444a2.285 2.285 0 0 1-.732-1.733 2.389 2.389 0 0 1 .732-1.752l12.534-12.536a2.366 2.366 0 0 1 1.734-.712 2.462 2.462 0 0 1 1.751.712l12.517 12.537a2.392 2.392 0 0 1 .732 1.752 2.361 2.361 0 0 1-.712 1.732z" class="cls-1" data-name="ir ao inicio da pagina" transform="translate(-1650.939 -4103.706)"/>
</svg>
