<svg xmlns="http://www.w3.org/2000/svg" width="35.274" height="26.706" viewBox="0 0 35.274 26.706">
    <defs>
        <style>
            .cls-1{fill:none;stroke:#a00000}
        </style>
    </defs>
    <path id="emailPositivo" d="M33.625 72.488a.4.4 0 0 1 .649.315v13.69a3.214 3.214 0 0 1-3.213 3.213H3.213A3.214 3.214 0 0 1 0 86.492V72.81a.4.4 0 0 1 .649-.315c1.5 1.165 3.488 2.644 10.316 7.6 1.412 1.031 3.8 3.2 6.172 3.186 2.39.02 4.82-2.2 6.179-3.186 6.828-4.956 8.809-6.442 10.309-7.607zm-16.488 8.649c1.553.027 3.789-1.955 4.914-2.771 8.883-6.447 9.559-7.009 11.608-8.615a1.6 1.6 0 0 0 .616-1.265v-1.273A3.214 3.214 0 0 0 31.061 64H3.213A3.214 3.214 0 0 0 0 67.213v1.272a1.612 1.612 0 0 0 .616 1.265c2.048 1.6 2.725 2.169 11.608 8.615 1.124.817 3.36 2.799 4.913 2.772z" class="cls-1" transform="translate(.5 -63.499)"/>
</svg>
