<svg xmlns="http://www.w3.org/2000/svg" width="50" height="50" viewBox="0 0 50 50">
    <g id="prefix__email" transform="translate(-1543 -1837)">
        <rect id="prefix__Retângulo_39" width="50" height="50" data-name="Retângulo 39" rx="10" transform="translate(1543 1837)" style="fill:#a00000"/>
        <path id="prefix__emailPositivo" d="M33.625 72.488a.4.4 0 01.649.315v13.69a3.214 3.214 0 01-3.213 3.213H3.213A3.214 3.214 0 010 86.492V72.81a.4.4 0 01.649-.315c1.5 1.165 3.488 2.644 10.316 7.6 1.412 1.031 3.8 3.2 6.172 3.186 2.39.02 4.82-2.2 6.179-3.186 6.828-4.956 8.809-6.442 10.309-7.607zm-16.488 8.649c1.553.027 3.789-1.955 4.914-2.771 8.883-6.447 9.559-7.009 11.608-8.615a1.6 1.6 0 00.616-1.265v-1.273A3.214 3.214 0 0031.061 64H3.213A3.214 3.214 0 000 67.213v1.272a1.612 1.612 0 00.616 1.265c2.048 1.6 2.725 2.169 11.608 8.615 1.124.817 3.36 2.799 4.913 2.772z" transform="translate(1551 1785)" style="fill:#fff"/>
    </g>
</svg>
