<svg xmlns="http://www.w3.org/2000/svg" width="26.706" height="26" viewBox="0 0 26.706 26">
    <defs>
        <style>
            .cls-1{fill:none;stroke:#a00000}
        </style>
    </defs>
    <path id="facebook-square" d="M25.706 34.679v19.642A2.718 2.718 0 0 1 22.951 57h-4.894v-9.888h3.477l.5-3.772h-3.977v-2.411c0-1.094.31-1.836 1.922-1.836h2.054v-3.371a28.387 28.387 0 0 0-3-.151 4.612 4.612 0 0 0-4.992 4.989v2.785h-3.483v3.772h3.494V57H2.754A2.718 2.718 0 0 1 0 54.321V34.679A2.718 2.718 0 0 1 2.754 32h20.2a2.718 2.718 0 0 1 2.752 2.679z" class="cls-1" transform="translate(.5 -31.499)"/>
</svg>
