<svg xmlns="http://www.w3.org/2000/svg" viewBox="0 0 122.76 149.93"><defs><style>.cls-1{fill:red;}</style></defs><title>Ativo 3</title><g id="Camada_2" data-name="Camada 2"><g id="logo"><polygon points="47.3 124.86 47.31 124.84 46.6 122.66 36.82 147.72 39.62 147.72 39.58 147.78 40.61 149.93 50.39 124.86 47.3 124.86"/><polygon points="64.48 124.86 64.49 124.84 63.78 122.66 54 147.72 57.19 147.72 57.15 147.78 58.18 149.93 67.96 124.86 64.48 124.86"/><polygon points="56.18 124.86 56.19 124.84 55.47 122.66 45.7 147.72 47.92 147.72 47.88 147.78 48.92 149.93 58.69 124.86 56.18 124.86"/><polygon points="38.8 124.86 38.81 124.84 38.1 122.66 28.33 147.72 30.74 147.72 30.71 147.78 31.74 149.93 41.51 124.86 38.8 124.86"/><polygon points="0 124.86 0 147.72 22.25 147.72 22.21 147.78 23.24 149.93 33.02 124.86 0 124.86"/><polygon points="99.58 124.86 99.6 124.84 98.88 122.66 89.11 147.72 122.34 147.72 122.34 124.86 99.58 124.86"/><polygon points="90.74 124.86 90.75 124.84 90.03 122.66 80.26 147.72 83.03 147.72 82.99 147.78 84.02 149.93 93.8 124.86 90.74 124.86"/><polygon points="73.75 124.86 73.76 124.84 73.04 122.66 63.27 147.72 65.68 147.72 65.65 147.78 66.68 149.93 76.45 124.86 73.75 124.86"/><polygon points="82.24 124.86 82.25 124.84 81.54 122.66 71.77 147.72 74.18 147.72 74.14 147.78 75.17 149.93 84.95 124.86 82.24 124.86"/><path class="cls-1" d="M3.27,40.77l2,1s.06.06.09.1H20.78a45.69,45.69,0,0,1,81.57,0h15.46s0-.08.09-.1l2-1a.37.37,0,0,0,.18-.48l-1.45-3.49a.38.38,0,0,0-.47-.22l-2.09.68a.37.37,0,0,1-.45-.19l-1.72-3.38a.38.38,0,0,1,.11-.48l1.78-1.29a.37.37,0,0,0,.1-.5l-2-3.23a.37.37,0,0,0-.49-.14l-2,1a.37.37,0,0,1-.48-.11l-2.23-3.07a.38.38,0,0,1,0-.49l1.55-1.56a.38.38,0,0,0,0-.51l-2.46-2.88a.37.37,0,0,0-.51-.06l-1.78,1.29a.37.37,0,0,1-.49,0l-2.68-2.68a.37.37,0,0,1,0-.49l1.29-1.78a.37.37,0,0,0-.06-.51l-2.88-2.45a.37.37,0,0,0-.51,0l-1.55,1.55a.39.39,0,0,1-.5,0l-3.07-2.23a.37.37,0,0,1-.11-.48l1-2a.37.37,0,0,0-.14-.49l-3.23-2a.37.37,0,0,0-.5.1l-1.29,1.78a.38.38,0,0,1-.48.11L87,8.45A.37.37,0,0,1,86.77,8l.68-2.09a.38.38,0,0,0-.22-.47L83.74,4a.38.38,0,0,0-.48.18l-1,2a.4.4,0,0,1-.46.19L78.2,5.14a.37.37,0,0,1-.26-.42l.34-2.17A.37.37,0,0,0,78,2.13l-3.68-.89a.39.39,0,0,0-.45.25l-.68,2.09a.38.38,0,0,1-.42.26L69,3.25a.39.39,0,0,1-.32-.38V.68A.37.37,0,0,0,68.35.3L64.59,0a.38.38,0,0,0-.41.32l-.39,2.49H59.67a.38.38,0,0,1-.38-.32L59,.32a.38.38,0,0,0-.4-.32L54.78.3a.37.37,0,0,0-.35.38V2.87a.39.39,0,0,1-.32.38l-3.75.59a.38.38,0,0,1-.42-.26l-.68-2.09a.39.39,0,0,0-.45-.25l-3.67.89a.37.37,0,0,0-.29.42l.34,2.17a.37.37,0,0,1-.25.42L41.33,6.32a.4.4,0,0,1-.46-.19l-1-2A.39.39,0,0,0,39.39,4L35.9,5.44a.38.38,0,0,0-.22.47L36.36,8a.37.37,0,0,1-.19.45l-3.38,1.72a.38.38,0,0,1-.48-.11L31,8.28a.37.37,0,0,0-.5-.1l-3.23,2a.37.37,0,0,0-.14.49l1,2a.37.37,0,0,1-.11.48L25,15.32a.38.38,0,0,1-.49,0l-1.56-1.55a.37.37,0,0,0-.51,0l-2.88,2.45a.38.38,0,0,0-.06.51l1.29,1.78a.38.38,0,0,1,0,.49L18,21.62a.37.37,0,0,1-.49,0l-1.78-1.29a.37.37,0,0,0-.51.06l-2.45,2.88a.37.37,0,0,0,0,.51l1.55,1.56a.38.38,0,0,1,0,.49l-2.23,3.07a.37.37,0,0,1-.48.11l-2-1a.37.37,0,0,0-.49.14l-2,3.23a.37.37,0,0,0,.1.5l1.78,1.29a.38.38,0,0,1,.11.48L7.55,37.07a.37.37,0,0,1-.45.19L5,36.58a.38.38,0,0,0-.47.22L3.09,40.29A.38.38,0,0,0,3.27,40.77Z"/><path class="cls-1" d="M105.41,75.34a45.7,45.7,0,0,1-87.69,0H.37l.86,3.56a.37.37,0,0,0,.42.28l2.17-.34a.39.39,0,0,1,.43.26l1.17,3.6a.38.38,0,0,1-.19.46l-2,1a.38.38,0,0,0-.18.48l1.45,3.49a.38.38,0,0,0,.47.22l2.09-.68a.37.37,0,0,1,.45.19l1.72,3.38a.38.38,0,0,1-.11.48L7.38,93a.37.37,0,0,0-.1.5l2,3.23a.37.37,0,0,0,.49.14l2-1a.37.37,0,0,1,.48.11l2.23,3.07a.38.38,0,0,1,0,.49l-1.55,1.56a.37.37,0,0,0,0,.51l2.45,2.88a.37.37,0,0,0,.51.06l1.78-1.29a.37.37,0,0,1,.49,0L20.73,106a.38.38,0,0,1,0,.49l-1.29,1.78a.38.38,0,0,0,.06.51l2.88,2.45a.37.37,0,0,0,.51,0l1.56-1.55a.38.38,0,0,1,.49,0L28,111.84a.37.37,0,0,1,.11.48l-1,2a.37.37,0,0,0,.14.49l3.23,2a.37.37,0,0,0,.5-.1l1.29-1.78a.38.38,0,0,1,.48-.11l3.38,1.72a.37.37,0,0,1,.19.45L35.68,119a.38.38,0,0,0,.22.47l3.49,1.45a.39.39,0,0,0,.49-.18l1-2a.4.4,0,0,1,.46-.19l3.61,1.18a.37.37,0,0,1,.25.42l-.34,2.17a.37.37,0,0,0,.29.42l3.67.89a.39.39,0,0,0,.45-.25l.68-2.09a.38.38,0,0,1,.42-.26l3.75.59a.39.39,0,0,1,.32.38v2.19a.37.37,0,0,0,.35.38l3.77.3a.38.38,0,0,0,.4-.32l.34-2.17a.38.38,0,0,1,.38-.32h3.79a.38.38,0,0,1,.38.32l.34,2.17a.38.38,0,0,0,.41.32l3.76-.3a.37.37,0,0,0,.35-.38v-2.52l4.07-.64a.38.38,0,0,1,.42.26l.68,2.09a.39.39,0,0,0,.45.25L78,122.8a.37.37,0,0,0,.28-.42l-.34-2.17a.37.37,0,0,1,.26-.42l3.6-1.18a.4.4,0,0,1,.46.19l1,2a.38.38,0,0,0,.48.18l3.49-1.45a.38.38,0,0,0,.22-.47l-.68-2.09a.37.37,0,0,1,.19-.45l3.38-1.72a.38.38,0,0,1,.48.11l1.29,1.78a.37.37,0,0,0,.5.1l3.23-2a.37.37,0,0,0,.14-.49l-1-2a.37.37,0,0,1,.11-.48l3.07-2.23a.39.39,0,0,1,.5,0l1.55,1.55a.37.37,0,0,0,.51,0l2.88-2.45a.37.37,0,0,0,.06-.51l-1.29-1.78a.37.37,0,0,1,0-.49l2.68-2.68a.37.37,0,0,1,.49,0l1.78,1.29a.37.37,0,0,0,.51-.06l2.46-2.88a.38.38,0,0,0,0-.51l-1.55-1.56a.38.38,0,0,1,0-.49L110.94,96a.37.37,0,0,1,.48-.11l2,1a.37.37,0,0,0,.49-.14l2-3.23a.37.37,0,0,0-.1-.5L114,91.72a.38.38,0,0,1-.11-.48l1.72-3.38a.37.37,0,0,1,.45-.19l2.09.68a.38.38,0,0,0,.47-.22L120,84.64a.37.37,0,0,0-.18-.48l-2-1a.4.4,0,0,1-.19-.46l1.18-3.6a.37.37,0,0,1,.42-.26l2.17.34a.39.39,0,0,0,.43-.28l.85-3.56Z"/><path d="M5,66.38a4.87,4.87,0,0,0,1.26,1.26,6.13,6.13,0,0,0,1.69.8,6.82,6.82,0,0,0,2,.28,5.64,5.64,0,0,0,1.28-.14,3.87,3.87,0,0,0,1.15-.44,2.39,2.39,0,0,0,.84-.8,2.17,2.17,0,0,0,.32-1.18A2.24,2.24,0,0,0,13.23,65a3.21,3.21,0,0,0-1-1A13.37,13.37,0,0,0,10.35,63c-.78-.37-1.76-.8-2.95-1.3a9.54,9.54,0,0,1-3.88-2.86A7.11,7.11,0,0,1,2,54.25a8.51,8.51,0,0,1,.75-3.7,7.24,7.24,0,0,1,2-2.59,8.55,8.55,0,0,1,3-1.55,12.59,12.59,0,0,1,3.68-.52,16.93,16.93,0,0,1,3.81.43A27.92,27.92,0,0,1,19,47.42a18.86,18.86,0,0,0-.9,2.63,15.73,15.73,0,0,0-.48,2.67H16.19A4.71,4.71,0,0,0,14.71,50a4.38,4.38,0,0,0-3.11-1.1,5.53,5.53,0,0,0-1.23.14,4.36,4.36,0,0,0-1.21.44,2.63,2.63,0,0,0-.9.78,2,2,0,0,0-.36,1.2,1.86,1.86,0,0,0,.36,1.15,3.5,3.5,0,0,0,1,.87,9.86,9.86,0,0,0,1.46.75l1.82.78,2.74,1.21A7.05,7.05,0,0,1,18.64,59a8.27,8.27,0,0,1,1,4.3,9.26,9.26,0,0,1-.75,3.88,7.21,7.21,0,0,1-2.06,2.7,8.29,8.29,0,0,1-3.13,1.55,15.23,15.23,0,0,1-3.91.48q-1.17,0-2.13-.09c-.64-.06-1.27-.14-1.87-.23A13.46,13.46,0,0,1,4,71.18c-.62-.19-1.28-.42-2-.68.09-.49.18-1,.26-1.37s.16-.84.23-1.28.14-.9.2-1.4.11-1.08.16-1.74H4.31A4.48,4.48,0,0,0,5,66.38Z"/><path d="M24.15,60c0-.31,0-.84,0-1.59s0-1.53,0-2.36,0-1.65,0-2.38,0-1.25,0-1.53c0-.81,0-1.7-.07-2.67s-.13-2-.25-3.2l2.15.21c.8.07,1.54.11,2.23.11s1.4,0,2.22-.09,1.53-.14,2.15-.23c-.07.83-.13,1.69-.18,2.59s-.09,1.8-.12,2.69-.06,1.74-.07,2.56,0,1.57,0,2.26l1.81,0,2.06,0c.62,0,1.27,0,2,0l2,0c0-.71,0-1.49,0-2.33s0-1.7-.07-2.58-.08-1.76-.13-2.65-.1-1.74-.17-2.54l2.17.21c.8.07,1.54.11,2.2.11s1.41,0,2.22-.09,1.54-.14,2.16-.23c-.15,1.49-.25,3-.31,4.62s-.09,3.44-.09,5.55c0,1.59,0,3,0,4.36s.05,2.57.09,3.77.07,2.37.1,3.52.08,2.36.13,3.64a34,34,0,0,0-4.66-.32q-1,0-2,.09c-.68.06-1.36.14-2.05.23.1-.78.17-1.72.23-2.82s.1-2.22.13-3.35,0-2.19.05-3.2,0-1.82,0-2.43c-.64,0-1.29,0-2,0s-1.33,0-2,0l-2,0c-.68,0-1.34,0-2,.06,0,.64,0,1.46,0,2.47s0,2.07,0,3.2.06,2.23.11,3.32.1,2,.17,2.81c-.73-.12-1.47-.2-2.2-.25s-1.48-.07-2.24-.07-1.69,0-2.35.09-1.3.14-1.92.23l.14-1.78c.05-.52.09-1.17.13-2s.06-1.65.07-2.56,0-1.84,0-2.79S24.15,60.78,24.15,60Z"/><path d="M61.8,66c0,2.07.13,4,.3,5.67A19.26,19.26,0,0,0,60,71.46c-.77,0-1.54-.07-2.3-.07s-1.5,0-2.24.11l-2,.21c.12-2,.21-3.94.27-5.87s.09-3.87.09-5.86c0-.48,0-1.07,0-1.76s0-1.42,0-2.16,0-1.48,0-2.18,0-1.29,0-1.76c0-.83,0-1.77-.08-2.81s-.11-2.07-.21-3.06l2.13.21c.81.07,1.55.11,2.21.11s1.49,0,2.28-.09,1.48-.14,2.09-.23c-.11,1.71-.21,3.39-.28,5s-.11,3.34-.11,5.05v3.56C61.74,61.92,61.76,64,61.8,66Z"/><path d="M84.08,60.62c.5.83,1,1.72,1.62,2.68s1.18,1.93,1.79,2.9,1.23,1.93,1.85,2.88,1.21,1.83,1.78,2.63c-.83-.09-1.66-.17-2.49-.23s-1.66-.09-2.49-.09-1.56,0-2.28.09-1.45.14-2.24.23c-.94-1.85-1.9-3.68-2.86-5.49s-2-3.65-3.15-5.5h-.1c0,1.57,0,3.33,0,5.28s.1,3.86.2,5.71c-.69-.09-1.38-.17-2.07-.23s-1.4-.09-2.13-.09-1.36,0-2.08.09-1.49.14-2.3.23c.12-1.21.22-2.65.31-4.32s.12-3.36.12-5.07c0-.78,0-1.76,0-2.93s0-2.47,0-3.9-.06-2.92-.11-4.49-.1-3.16-.17-4.75c.83.12,1.65.2,2.47.25s1.6.07,2.36.07c1.14,0,2.27,0,3.4-.16s2.26-.16,3.4-.16a25.41,25.41,0,0,1,3.57.25,10,10,0,0,1,3.24,1A6,6,0,0,1,88,49.54,6.15,6.15,0,0,1,89,53.08a5.55,5.55,0,0,1-1.55,4.19,8.07,8.07,0,0,1-4.11,2Zm-8.57-2.71.33.06h1a3.52,3.52,0,0,0,3.08-1.22,6.77,6.77,0,0,0,.46-5.64,3.41,3.41,0,0,0-1-1.3A3,3,0,0,0,78,49.27a9.58,9.58,0,0,0-1.37-.11l-.56,0a5.51,5.51,0,0,0-.57.06Z"/><path d="M106.41,45.93a19.31,19.31,0,0,1,5.73.83,13.44,13.44,0,0,1,4.64,2.48,11.3,11.3,0,0,1,3.09,4A13,13,0,0,1,121,58.84a13.88,13.88,0,0,1-1.13,5.81,11.46,11.46,0,0,1-3.12,4.11,12.55,12.55,0,0,1-4.67,2.4,21.28,21.28,0,0,1-5.8.77,17.8,17.8,0,0,1-5.51-.84,13.31,13.31,0,0,1-4.55-2.49,11.64,11.64,0,0,1-3.08-4.09A13,13,0,0,1,92,59a13.68,13.68,0,0,1,1.1-5.64,11.75,11.75,0,0,1,3-4.09,13.13,13.13,0,0,1,4.57-2.49A19,19,0,0,1,106.41,45.93Zm.29,23.19a4.58,4.58,0,0,0,2.2-.5,5.08,5.08,0,0,0,1.57-1.3,6.73,6.73,0,0,0,1-1.87,13.8,13.8,0,0,0,.6-2.18,17.25,17.25,0,0,0,.29-2.26c0-.76.07-1.46.07-2.1a30,30,0,0,0-.2-3.29,11.89,11.89,0,0,0-.82-3.27,6.22,6.22,0,0,0-1.81-2.51,4.81,4.81,0,0,0-3.18-1,4.65,4.65,0,0,0-3,.95,6.41,6.41,0,0,0-1.8,2.36,10.73,10.73,0,0,0-.85,3.11,24,24,0,0,0-.22,3.15c0,.74,0,1.51.06,2.33a17.56,17.56,0,0,0,.26,2.42,14.4,14.4,0,0,0,.61,2.26,6.47,6.47,0,0,0,1.08,1.9,5,5,0,0,0,1.71,1.32A5.68,5.68,0,0,0,106.7,69.12Z"/><path d="M33.65,81.84q0,4.95-3.51,5c-2.35,0-3.52-1.62-3.52-4.84V75.34h2.17v6.85c0,1.8.45,2.7,1.36,2.7a1,1,0,0,0,1-.65,5,5,0,0,0,.3-2V75.34h2.18Z"/><path d="M35.41,86.19V83.94a3.91,3.91,0,0,0,2.33,1,1.2,1.2,0,0,0,.93-.36,1.31,1.31,0,0,0,.32-.88,1.42,1.42,0,0,0-.31-.92,4.51,4.51,0,0,0-1.21-.93,3.72,3.72,0,0,1-2.14-3.28,3.32,3.32,0,0,1,.91-2.44,3.16,3.16,0,0,1,2.38-.93,5.45,5.45,0,0,1,2.19.41v2.09a3.67,3.67,0,0,0-2-.61,1.22,1.22,0,0,0-.88.36,1.18,1.18,0,0,0-.36.88c0,.67.45,1.28,1.35,1.8a4.94,4.94,0,0,1,1.81,1.54,3.43,3.43,0,0,1,.51,1.87,3.29,3.29,0,0,1-.88,2.38,3.36,3.36,0,0,1-2.54.92,5.71,5.71,0,0,1-1.35-.18A3.36,3.36,0,0,1,35.41,86.19Z"/><path d="M43,86.59V75.34h2.17V86.59Z"/><path d="M52.15,86.59l-2.51-6.43c-.1-.27-.24-.7-.41-1.28l-.11-.36h0c0,.88,0,1.64,0,2.3v5.77H47.33V75.34h2.45l2.5,6.57c.08.21.24.75.48,1.61h0l0-1.85V75.34h1.82V86.59Z"/><path d="M62.24,86.59l-.63-2.76H58.8l-.64,2.76H55.89L59,75.34h2.52l3,11.25Zm-1.78-8c-.05-.24-.11-.64-.17-1.19,0-.11,0-.18,0-.22h0A12.45,12.45,0,0,1,60,78.49l-.84,3.64h2.12Z"/><path d="M73,85.84a4.23,4.23,0,0,1-2.91,1,4.09,4.09,0,0,1-3.29-1.49,6.26,6.26,0,0,1-1.24-4.14,6.77,6.77,0,0,1,1.3-4.42,4.29,4.29,0,0,1,3.5-1.59,4.71,4.71,0,0,1,2.25.46v2.13a3.32,3.32,0,0,0-2.1-.7,2.28,2.28,0,0,0-2,1.08,5.25,5.25,0,0,0-.74,3,5,5,0,0,0,.67,2.78,2,2,0,0,0,1.68,1,1.35,1.35,0,0,0,.73-.2V82.16h-1.5V80.29H73Z"/><path d="M75,86.59V75.34h5.17V77.2h-3V80H80v1.87H77.15v2.84h3.21v1.87Z"/><path d="M86.85,86.59l-2.51-6.43c-.1-.27-.24-.7-.4-1.28,0-.14-.08-.26-.11-.36h0c0,.88,0,1.64,0,2.3v5.77H82V75.34h2.45L87,81.91c.08.21.24.75.48,1.61h0l0-1.85V75.34h1.82V86.59Z"/><path d="M91.11,86.19V83.94a3.91,3.91,0,0,0,2.33,1,1.16,1.16,0,0,0,.92-.36,1.27,1.27,0,0,0,.33-.88,1.43,1.43,0,0,0-.32-.92,4.43,4.43,0,0,0-1.2-.93A3.72,3.72,0,0,1,91,78.52a3.36,3.36,0,0,1,.9-2.44,3.19,3.19,0,0,1,2.39-.93,5.45,5.45,0,0,1,2.19.41v2.09a3.67,3.67,0,0,0-2-.61,1.21,1.21,0,0,0-.88.36,1.18,1.18,0,0,0-.36.88c0,.67.45,1.28,1.35,1.8a4.94,4.94,0,0,1,1.81,1.54A3.43,3.43,0,0,1,97,83.49a3.33,3.33,0,0,1-.88,2.38,3.39,3.39,0,0,1-2.55.92,5.7,5.7,0,0,1-1.34-.18A3.36,3.36,0,0,1,91.11,86.19Z"/></g></g></svg>