<svg xmlns="http://www.w3.org/2000/svg" width="50" height="50" viewBox="0 0 50 50">
    <g id="prefix__telefone" transform="translate(-1543 -1749)">
        <rect id="prefix__Retângulo_38" width="50" height="50" data-name="Retângulo 38" rx="10" transform="translate(1543 1749)" style="fill:#a00000"/>
        <path id="prefix__whatsapp" d="M29.66 37.069A17.292 17.292 0 002.453 57.93L0 66.885l9.165-2.406a17.234 17.234 0 008.262 2.1h.008a17.177 17.177 0 0012.225-29.51zm-12.225 26.6a14.343 14.343 0 01-7.32-2l-.522-.311-5.435 1.423 1.448-5.3-.343-.545a14.4 14.4 0 1126.7-7.639 14.529 14.529 0 01-14.528 14.372zm7.88-10.761c-.428-.218-2.554-1.261-2.951-1.4s-.685-.218-.973.218-1.114 1.4-1.37 1.7-.506.327-.934.109c-2.539-1.269-4.2-2.266-5.879-5.139-.444-.763.444-.709 1.269-2.359a.8.8 0 00-.039-.755c-.109-.218-.973-2.344-1.332-3.208-.35-.841-.709-.724-.973-.74-.249-.016-.537-.016-.825-.016a1.6 1.6 0 00-1.152.537 4.854 4.854 0 00-1.511 3.605 8.462 8.462 0 001.76 4.47c.218.288 3.045 4.649 7.382 6.525 2.741 1.184 3.816 1.285 5.186 1.082a4.424 4.424 0 002.912-2.056 3.612 3.612 0 00.249-2.056c-.103-.198-.391-.307-.819-.517z" transform="translate(1551 1724.999)" style="fill:#fff"/>
    </g>
</svg>
